Coordinates
version=1
nRows=7
nColumns=40
inDegrees=yes

Units are S.I. units (second, meters, Newtons, ...)
Angles are in degrees.

endheader
time	pelvis_tilt	pelvis_list	pelvis_rotation	pelvis_tx	pelvis_ty	pelvis_tz	hip_flexion_r	hip_adduction_r	hip_rotation_r	knee_angle_r	knee_angle_r_beta	ankle_angle_r	subtalar_angle_r	mtp_angle_r	hip_flexion_l	hip_adduction_l	hip_rotation_l	knee_angle_l	knee_angle_l_beta	ankle_angle_l	subtalar_angle_l	mtp_angle_l	lumbar_extension	lumbar_bending	lumbar_rotation	arm_flex_r	arm_add_r	arm_rot_r	elbow_flex_r	pro_sup_r	wrist_flex_r	wrist_dev_r	arm_flex_l	arm_add_l	arm_rot_l	elbow_flex_l	pro_sup_l	wrist_flex_l	wrist_dev_l
     26.48000000	     -7.25146258	     -4.88815634	      1.74258515	      0.96204792	      0.91590887	      0.39245883	     15.84940784	     -7.58017567	     -5.96537586	     54.04013575	     54.04013575	      3.62727388	     -9.82406613	     -4.10925408	     23.01325964	     -2.09527433	     -0.87257483	     32.16730088	     32.16730088	     18.28441212	    -16.70556838	      8.88894021	    -10.32356161	      5.00043934	      3.61981862	     10.17392530	    -15.73235328	    -14.50615042	     28.89144553	     46.02351604	      0.00000000	      0.00000000	     16.65783612	    -16.48991255	     -5.86250669	     60.21125604	     46.56684814	      0.00000000	      0.00000000
     26.49814286	     -7.11797651	     -5.05229308	      1.44425898	      0.96061096	      0.91520415	      0.39121606	     17.61741188	     -7.36499599	     -5.29886740	     56.23289156	     56.23289156	      3.78290902	    -11.23750716	     -4.04932094	     22.79102571	     -2.25423141	     -0.96221033	     32.65877552	     32.65877552	     18.73905175	    -16.90005138	      8.80697195	    -10.36425993	      5.31187922	      3.23168584	      8.03820386	    -15.18684686	    -14.53991808	     28.23718955	     46.03928165	      0.00000000	      0.00000000	     17.65062663	    -16.89589813	     -6.28925035	     61.29135328	     46.63212829	      0.00000000	      0.00000000
     26.51628571	     -6.95515145	     -5.20833918	      1.11225616	      0.95916650	      0.91463795	      0.39003642	     19.30729627	     -7.11200395	     -4.66345777	     58.14515545	     58.14515545	      3.96383195	    -12.58111603	     -3.68531590	     22.49533342	     -2.42657206	     -1.12209604	     33.09975566	     33.09975566	     19.19862531	    -17.03149769	      8.74557076	    -10.47899703	      5.63359112	      2.92443011	      5.79508608	    -14.69361082	    -14.56344345	     27.73248159	     46.04659003	      0.00000000	      0.00000000	     18.73196418	    -17.25188593	     -6.78863341	     62.39633022	     46.70373588	      0.00000000	      0.00000000
     26.53442857	     -6.73762082	     -5.36356283	      0.72912442	      0.95778136	      0.91434913	      0.38902383	     20.90922075	     -6.87136106	     -4.16554204	     59.80184652	     59.80184652	      4.94518172	    -13.26472331	     -1.06002382	     22.07966497	     -2.62198880	     -1.32876359	     33.47970362	     33.47970362	     19.87716460	    -17.03114940	      9.20749901	    -10.71379893	      5.94332333	      2.80231562	      2.91766556	    -14.25034128	    -14.68649486	     28.93562147	     46.00160345	      0.00000000	      0.00000000	     19.73954935	    -17.38106275	     -7.84539611	     63.93058616	     46.87039447	      0.00000000	      0.00000000
     26.55257143	     -6.47411029	     -5.48434046	      0.35083217	      0.95646564	      0.91443543	      0.38809568	     22.20273745	     -6.77901988	     -3.99005204	     60.69342190	     60.69342190	      5.18563022	    -13.89932676	     -1.11019672	     21.46072558	     -2.76250183	     -1.50811909	     33.55616699	     33.55616699	     20.22926215	    -17.15353964	      9.10060032	    -10.93482212	      6.26984019	      2.23731691	      1.15018413	    -13.74154399	    -14.64902771	     28.28869982	     46.01155723	      0.00000000	      0.00000000	     20.69324337	    -18.17950770	     -8.21230470	     64.34729120	     46.91294065	      0.00000000	      0.00000000
     26.57071429	     -6.46042399	     -5.57393797	     -0.23641184	      0.95486669	      0.91448037	      0.38770605	     23.77711447	     -6.40553438	     -3.45961457	     61.09975791	     61.09975791	      5.40094147	    -15.21750729	     -0.37856077	     21.09533032	     -2.98020574	     -1.99366457	     33.60824955	     33.60824955	     20.48955550	    -17.23139020	      9.10674326	    -10.92669044	      6.48828417	      2.65527581	     -1.01522497	    -13.44400665	    -14.55212318	     27.65721434	     46.01901437	      0.00000000	      0.00000000	     21.96551763	    -17.94906410	     -8.71900770	     65.62268074	     46.99033455	      0.00000000	      0.00000000
     26.58885714	     -6.33877644	     -5.60858384	     -0.81625209	      0.95333431	      0.91509137	      0.38756338	     25.01842328	     -6.24453947	     -3.31002331	     60.80904558	     60.80904558	      5.77606947	    -15.67477408	      0.14208665	     20.45625691	     -3.13062997	     -2.45868754	     33.36741004	     33.36741004	     20.72261543	    -17.25347207	      9.13986006	    -11.04963457	      6.60068220	      2.56140006	     -2.77012129	    -13.03920640	    -14.50775159	     27.40432064	     46.01676152	      0.00000000	      0.00000000	     22.95607708	    -18.26612482	     -9.32115040	     66.44530087	     47.06427445	      0.00000000	      0.00000000
